<svg width="22" height="21" viewBox="0 0 22 21" fill="none" xmlns="http://www.w3.org/2000/svg">
<path d="M10.3163 20.5667C10.4569 20.4273 10.5685 20.2614 10.6446 20.0786C10.7208 19.8958 10.76 19.6997 10.76 19.5017C10.76 19.3037 10.7208 19.1076 10.6446 18.9248C10.5685 18.742 10.4569 18.5761 10.3163 18.4367L3.44613 11.5665C3.30553 11.4271 3.19394 11.2611 3.11778 11.0784C3.04163 10.8956 3.00242 10.6995 3.00242 10.5015C3.00242 10.3034 3.04163 10.1074 3.11778 9.92459C3.19394 9.7418 3.30553 9.57589 3.44613 9.43644L10.3163 2.56626C10.4569 2.42681 10.5685 2.2609 10.6446 2.07811C10.7208 1.89532 10.76 1.69925 10.76 1.50123C10.76 1.30321 10.7208 1.10714 10.6446 0.924349C10.5685 0.741555 10.4569 0.575649 10.3163 0.4362C10.0353 0.156817 9.65506 -4.82987e-08 9.25877 -6.56211e-08C8.86249 -8.29434e-08 8.4823 0.156816 8.20125 0.4362L1.31607 7.32139C0.47335 8.16516 3.21308e-07 9.30894 2.69181e-07 10.5015C2.17054e-07 11.694 0.47335 12.8378 1.31607 13.6816L8.20125 20.5667C8.4823 20.8461 8.86249 21.0029 9.25877 21.0029C9.65506 21.0029 10.0352 20.8461 10.3163 20.5667V20.5667Z" fill="white"/>
<path d="M21.3163 20.5667C21.4569 20.4273 21.5685 20.2614 21.6446 20.0786C21.7208 19.8958 21.76 19.6997 21.76 19.5017C21.76 19.3037 21.7208 19.1076 21.6446 18.9248C21.5685 18.742 21.4569 18.5761 21.3163 18.4367L14.4461 11.5665C14.3055 11.4271 14.1939 11.2611 14.1178 11.0784C14.0416 10.8956 14.0024 10.6995 14.0024 10.5015C14.0024 10.3034 14.0416 10.1074 14.1178 9.92459C14.1939 9.7418 14.3055 9.57589 14.4461 9.43644L21.3163 2.56626C21.4569 2.42681 21.5685 2.2609 21.6446 2.07811C21.7208 1.89532 21.76 1.69925 21.76 1.50123C21.76 1.30321 21.7208 1.10714 21.6446 0.924349C21.5685 0.741555 21.4569 0.575649 21.3163 0.4362C21.0353 0.156817 20.6551 -4.82987e-08 20.2588 -6.56211e-08C19.8625 -8.29434e-08 19.4823 0.156816 19.2012 0.4362L12.3161 7.32139C11.4734 8.16516 11 9.30894 11 10.5015C11 11.694 11.4733 12.8378 12.3161 13.6816L19.2012 20.5667C19.4823 20.8461 19.8625 21.0029 20.2588 21.0029C20.6551 21.0029 21.0352 20.8461 21.3163 20.5667V20.5667Z" fill="white"/>
</svg>
