<svg width="11" height="22" viewBox="0 0 11 22" fill="none" xmlns="http://www.w3.org/2000/svg">
<path d="M0.462785 0.554106C0.322189 0.693554 0.210594 0.859457 0.134439 1.04225C0.0582841 1.22505 0.0190761 1.42111 0.019076 1.61913C0.019076 1.81716 0.058284 2.01322 0.134439 2.19601C0.210594 2.37881 0.322188 2.54471 0.462785 2.68416L7.33296 9.55435C7.47355 9.6938 7.58515 9.8597 7.6613 10.0425C7.73746 10.2253 7.77667 10.4214 7.77667 10.6194C7.77667 10.8174 7.73746 11.0135 7.6613 11.1963C7.58515 11.3791 7.47355 11.545 7.33296 11.6844L0.462782 18.5546C0.322186 18.694 0.210592 18.8599 0.134437 19.0427C0.0582817 19.2255 0.0190737 19.4216 0.0190737 19.6196C0.0190737 19.8176 0.0582816 20.0137 0.134437 20.1965C0.210591 20.3793 0.322186 20.5452 0.462782 20.6846C0.743833 20.964 1.12402 21.1208 1.52031 21.1208C1.9166 21.1208 2.29678 20.964 2.57784 20.6846L9.46301 13.7995C10.3057 12.9557 10.7791 11.8119 10.7791 10.6194C10.7791 9.42684 10.3057 8.28307 9.46301 7.43929L2.57784 0.554106C2.29679 0.274721 1.9166 0.117901 1.52031 0.117901C1.12402 0.117901 0.743836 0.274721 0.462785 0.554106Z" fill="white"/>
</svg>
